<svg xmlns="http://www.w3.org/2000/svg" viewBox="0 0 48 48" width="48px" height="48px"><path fill="#FFC107" d="M43.611,20.083H42V20H24v8h11.303c-1.649,4.657-6.08,8-11.303,8c-6.627,0-12-5.373-12-12c0-6.627,5.373-12,12-12c3.059,0,5.842,1.154,8,3.029V10.18c-3.448-3.337-8.06-5.337-13-5.337c-11.045,0-20,8.955-20,20c0,11.045,8.955,20,20,20c11.045,0,20-8.955,20-20C44.011,22.659,43.864,21.35,43.611,20.083z"/><path fill="#FF3D00" d="M6.306,14.691l6.571,4.819C14.655,15.108,18.961,12,24,12c3.059,0,5.842,1.154,8,3.029V10.18C28.56,6.843,23.94,4.843,19,4.843C13.06,4.843,7.796,8.555,6.306,14.691z"/><path fill="#4CAF50" d="M24,44c5.166,0,9.86-1.977,13.409-5.192l-6.19-5.238C29.211,35.091,26.715,36,24,36c-5.202,0-9.619-3.317-11.283-7.946l-6.522,5.025C9.505,39.556,16.227,44,24,44z"/><path fill="#1976D2" d="M43.611,20.083H42V20H24v8h11.303c-0.792,2.237-2.231,4.117-4.087,5.571c0.001-0.001,0.002-0.001,0.003-0.002l6.19,5.238C36.971,39.205,44.011,34.034,44.011,28C44.011,25.35,43.864,21.35,43.611,20.083z"/></svg>